<?xml version="1.0" encoding="UTF-8" standalone="no"?>
<!DOCTYPE svg PUBLIC "-//W3C//DTD SVG 1.1//EN"
 "http://www.w3.org/Graphics/SVG/1.1/DTD/svg11.dtd">
<!-- Generated by graphviz version 8.0.5 (20230430.1635)
 -->
<!-- Title: structs Pages: 1 -->
<svg width="482pt" height="60pt"
 viewBox="0.00 0.00 482.00 59.75" xmlns="http://www.w3.org/2000/svg" xmlns:xlink="http://www.w3.org/1999/xlink">
<g id="graph0" class="graph" transform="scale(1 1) rotate(0) translate(4 55.75)">
<title>structs</title>
<polygon fill="white" stroke="none" points="-4,4 -4,-55.75 478,-55.75 478,4 -4,4"/>
<!-- amp -->
<g id="node1" class="node">
<title>amp</title>
<polygon fill="none" stroke="none" points="157,-4.75 157,-47.75 274.25,-47.75 274.25,-4.75 157,-4.75"/>
<polygon fill="none" stroke="black" points="157,-4.75 157,-47.75 274.25,-47.75 274.25,-4.75 157,-4.75"/>
<text text-anchor="start" x="203.62" y="-29.45" font-family="Times,serif" font-size="14.00">amp</text>
<text text-anchor="start" x="162" y="-12.95" font-family="Times,serif" font-size="14.00">(AmplitudeWidget)</text>
</g>
<!-- arm2d -->
<g id="node2" class="node">
<title>arm2d</title>
<polygon fill="none" stroke="none" points="405,-4.75 405,-47.75 466,-47.75 466,-4.75 405,-4.75"/>
<polygon fill="none" stroke="black" points="405,-4.75 405,-47.75 466,-47.75 466,-4.75 405,-4.75"/>
<text text-anchor="start" x="417.88" y="-29.45" font-family="Times,serif" font-size="14.00">arm2d</text>
<text text-anchor="start" x="410" y="-12.95" font-family="Times,serif" font-size="14.00">(Arm2D)</text>
</g>
<!-- amp&#45;&gt;arm2d -->
<g id="edge2" class="edge">
<title>amp:i&#45;&gt;arm2d:i</title>
<path fill="none" stroke="black" d="M274.15,-26.25C313.96,-26.25 365.65,-26.25 399.43,-26.25"/>
<polygon fill="black" stroke="black" points="399.1,-28 404.1,-26.25 399.1,-24.5 399.1,-28"/>
<text text-anchor="start" x="300.25" y="-29.1" font-family="Times,serif" font-size="12.00">arm_2d_tile_t(1)</text>
<text text-anchor="start" x="393.1" y="-8.85" font-family="Times,serif" font-size="12.00" fill="blue">1</text>
<text text-anchor="start" x="280.15" y="-8.85" font-family="Times,serif" font-size="12.00" fill="blue">1</text>
</g>
<!-- source -->
<g id="node3" class="node">
<title>source</title>
<polygon fill="none" stroke="none" points="8,-4.75 8,-47.75 61.5,-47.75 61.5,-4.75 8,-4.75"/>
<polygon fill="none" stroke="black" points="8,-4.75 8,-47.75 61.5,-47.75 61.5,-4.75 8,-4.75"/>
<text text-anchor="start" x="17.12" y="-29.45" font-family="Times,serif" font-size="14.00">source</text>
<text text-anchor="start" x="13" y="-12.95" font-family="Times,serif" font-size="14.00">(Signal)</text>
</g>
<!-- source&#45;&gt;amp -->
<g id="edge1" class="edge">
<title>source:i&#45;&gt;amp:i</title>
<path fill="none" stroke="black" d="M61.38,-26.25C84.84,-26.25 120.53,-26.25 151.56,-26.25"/>
<polygon fill="black" stroke="black" points="151.3,-28 156.3,-26.25 151.3,-24.5 151.3,-28"/>
<text text-anchor="start" x="87.5" y="-29.1" font-family="Times,serif" font-size="12.00">q15(256)</text>
<text text-anchor="start" x="133.3" y="-8.85" font-family="Times,serif" font-size="12.00" fill="blue">256</text>
<text text-anchor="start" x="67.38" y="-8.85" font-family="Times,serif" font-size="12.00" fill="blue">256</text>
</g>
</g>
</svg>
